<svg height="256" viewBox="0 0 256 256" width="256" xmlns="http://www.w3.org/2000/svg"><g fill="none" fill-rule="evenodd"><path d="m256 128c0 70.693-57.308 128-128 128-70.693 0-128-57.307-128-128s57.307-128 128-128c70.692 0 128 57.307 128 128" fill="#e60000"/><path d="m129.05 199.537c-35.228.118-71.879-29.933-72.04-78.184-.105-31.91 17.12-62.625 39.138-80.847 21.477-17.774 50.897-29.18 77.582-29.268 3.434-.012 7.026.275 9.225 1.018-23.331 4.836-41.9 26.537-41.818 51.157.004.813.076 1.683.157 2.088 39.041 9.504 56.764 33.047 56.873 65.623.107 32.576-25.625 68.27-69.117 68.413" fill="#fff"/></g></svg>